<svg viewBox="0 0 178 40" width="178" height="40"><path d="M173.432 16.0558V18.2051H173.48C174.327 16.7165 175.477 15.6896 177.109 15.6896C177.304 15.6853 177.499 15.7094 177.688 15.7613V18.014H176.84C176.391 18.0106 175.946 18.1006 175.534 18.2784C175.121 18.4562 174.75 18.7178 174.443 19.0469C174.137 19.3759 173.901 19.7653 173.751 20.1903C173.602 20.6154 173.542 21.0669 173.575 21.5165V29.023H171.411V16.0558H173.432ZM164.208 27.4707C167.298 27.4707 167.956 24.2867 167.956 22.5115C167.956 20.7364 167.298 17.5364 164.208 17.5364C161.117 17.5364 160.459 20.7205 160.459 22.4797C160.459 24.2389 161.117 27.4707 164.208 27.4707ZM164.208 15.6896C168.321 15.6896 170.175 19.1921 170.175 22.5115C170.175 25.8309 168.321 29.3573 164.208 29.3573C160.095 29.3573 158.24 25.8389 158.24 22.5115C158.24 19.1842 160.095 15.6896 164.208 15.6896ZM156.006 12.5056V16.1036H158.074V17.9105H156.006V26.2926C156.006 27.2479 156.853 27.3195 157.297 27.3195H158.09V29.0071C157.566 29.1074 157.037 29.1738 156.505 29.2061C154.365 29.2061 153.905 27.9802 153.905 26.412V17.8867H152.178V16.0797H153.905V12.4817L156.006 12.5056ZM148.731 22.3921C148.39 22.6548 147.851 22.8538 145.172 23.1882C144.103 23.3314 142.399 23.626 142.399 25.2658C142.399 26.6827 143.152 27.5424 144.776 27.5424C146.797 27.5424 148.739 26.2449 148.739 24.5095L148.731 22.3921ZM140.806 20.0041C140.806 16.8916 142.922 15.6976 146.108 15.6976C147.13 15.6976 150.862 15.9921 150.862 19.3195V26.6906C150.862 27.2319 151.132 27.4867 151.568 27.4867C151.805 27.4728 152.041 27.4382 152.273 27.3832V28.9752C151.899 29.115 151.506 29.1982 151.108 29.222C149.182 29.222 148.921 28.219 148.818 27.2399C148.25 27.917 147.538 28.4574 146.734 28.8211C145.93 29.1848 145.055 29.3626 144.174 29.3414C141.797 29.3414 140.156 27.8528 140.156 25.6001C140.156 24.0638 140.544 21.7872 145.069 21.4449C148.453 21.1742 148.699 20.9036 148.699 19.5663C148.699 18.229 147.78 17.5364 145.735 17.5364C143.278 17.5364 142.938 19.0568 142.819 20.0359L140.806 20.0041ZM136.012 16.024V18.1732H136.059C136.907 16.6847 138.056 15.6578 139.689 15.6578C139.884 15.6535 140.079 15.6776 140.267 15.7294V18.014H139.419C138.972 18.0128 138.529 18.1045 138.118 18.2832C137.708 18.4619 137.338 18.7239 137.033 19.0528C136.728 19.3816 136.494 19.7701 136.346 20.1941C136.197 20.6181 136.137 21.0683 136.17 21.5165V29.023H134.007V16.0558L136.012 16.024ZM123.015 22.4558C123.015 25.2658 124.109 27.4389 126.47 27.4389C127.833 27.4389 129.878 26.5155 129.878 23.0687C129.878 20.9354 129.656 17.616 126.541 17.616C123.197 17.6479 123.031 20.8001 123.031 22.4877L123.015 22.4558ZM132.049 16.024V27.8847C132.049 29.7394 132.002 34.3882 126.058 34.3882C124.521 34.3882 121.581 33.9663 121.169 30.5275H123.332C123.72 32.4061 125.709 32.5812 126.225 32.5812C129.783 32.5812 129.878 29.7633 129.878 27.4946C129.511 28.0817 128.996 28.5605 128.385 28.8822C127.773 29.2038 127.088 29.3568 126.399 29.3255C122.04 29.3255 120.796 25.1941 120.796 22.1135C120.796 18.42 122.722 15.6578 126.153 15.6578C126.936 15.6389 127.71 15.8331 128.392 16.2199C129.074 16.6066 129.64 17.1716 130.028 17.8548V16.024H132.049ZM118.07 21.5165C117.943 19.5105 117.095 17.6558 114.44 17.6558C113.469 17.7153 112.559 18.1509 111.901 18.8711C111.244 19.5912 110.89 20.5395 110.914 21.5165H118.07ZM120.115 24.9394C119.623 26.9454 118.284 29.3653 114.322 29.3653C110.716 29.3653 108.6 26.627 108.6 22.8857C108.6 18.8498 110.494 15.7215 114.757 15.7215C118.458 15.7215 120.305 18.6986 120.305 23.2757H110.914C110.914 25.9424 112.15 27.5026 114.639 27.5026C116.659 27.5026 117.943 25.9105 117.943 24.9633L120.115 24.9394ZM106.357 12.4817V16.0797H108.394V17.8867H106.326V26.2926C106.326 27.2479 107.181 27.3195 107.617 27.3195H108.41V29.0071C107.886 29.1069 107.357 29.1734 106.825 29.2061C104.677 29.2061 104.218 27.9802 104.218 26.412V17.8867H102.49V16.0797H104.218V12.4817H106.357ZM93.2894 16.0558V17.8867H93.337C93.7487 17.2244 94.3191 16.6763 94.9961 16.2925C95.673 15.9087 96.4349 15.7015 97.2122 15.6896C99.2092 15.6896 101.713 16.4857 101.713 20.1872V28.9911H99.55V21.0309C99.55 18.8021 98.916 17.6558 96.8001 17.6558C95.5797 17.6558 93.4162 18.4518 93.4162 21.9543V28.9991H91.2449V16.0558H93.2894ZM89.0814 28.9911H86.918V16.0558H89.0814V28.9911ZM89.0814 13.7076H86.918V11.2399H89.0814V13.7076ZM84.7228 28.9911H81.2914V11.2399H84.7228V28.9911ZM79.2231 28.9911H75.7917V11.2399H79.2231V28.9911ZM70.8071 21.0946C70.609 18.9931 69.2221 18.3324 68.1523 18.3324C66.5198 18.3324 65.6481 19.3832 65.45 21.0946H70.8071ZM74.1909 25.1304C73.8556 26.385 73.1026 27.4864 72.0572 28.2512C71.0118 29.0159 69.7371 29.3979 68.4455 29.3334C64.7684 29.3334 61.9235 27.5503 61.9235 22.1692C61.9235 20.5772 62.4861 15.5225 68.1998 15.5225C71.8769 15.5225 74.3335 17.5444 74.3335 22.0737V23.3633H65.45C65.45 24.3663 65.6719 26.5951 68.4455 26.5951C68.92 26.6243 69.3914 26.5002 69.7907 26.241C70.1899 25.9817 70.4961 25.6009 70.6644 25.1543L74.1909 25.1304ZM49.8304 25.9265H54.3078C56.1067 25.9265 57.1528 25.1304 57.1528 23.3076C57.1528 21.7712 55.8373 21.1583 54.506 21.1583H49.8304V25.9265ZM49.8304 18.1732H54.1335C55.5996 18.1732 56.7407 17.616 56.7407 16.1911C56.7407 14.7663 55.7184 14.2886 54.0384 14.2886H49.8304V18.1732ZM46.1533 11.2319H54.8705C59.1736 11.2319 60.2751 13.9464 60.2751 15.7533C60.2751 18.3006 58.8566 19.0568 58.1275 19.423C60.2989 20.219 60.8299 21.9384 60.8299 23.6737C60.8299 25.1941 60.2751 28.9832 53.7452 28.9832H46.1533V11.2319Z" fill="white"></path><path d="M34.6765 0H5.32346C2.38339 0 0 2.43415 0 5.43682V34.5632C0 37.5659 2.38339 40 5.32346 40H34.6765C37.6166 40 40 37.5659 40 34.5632V5.43682C40 2.43415 37.6166 0 34.6765 0Z" fill="currentColor"></path><path d="M16.6313 11.7891C15.8388 11.5264 15.2049 11.8448 14.3965 13.0149C15.1694 11.8666 15.6435 10.542 15.7754 9.16219L14.1905 8C14.1905 8 14.8324 10.1174 13.3426 13.4766C13.406 10.5154 11.3931 10.4995 10.5689 11.0886C9.98741 11.5991 9.54359 12.2487 9.27859 12.9774C9.01358 13.706 8.93597 14.4901 9.05292 15.2569C9.16988 16.0237 9.47763 16.7484 9.94766 17.364C10.4177 17.9795 11.0348 18.4659 11.7418 18.7781C12.8021 19.208 13.983 19.2306 15.0588 18.8415C16.1347 18.4524 17.0302 17.6789 17.5743 16.6687C18.3827 15.2279 18.7789 12.5214 16.6313 11.7891Z" fill="white"></path><path d="M30.119 11.7891C29.3266 11.5264 28.6926 11.8448 27.8922 13.0149C28.6596 11.8645 29.1307 10.5406 29.2632 9.16219L27.6782 8C27.6782 8 28.3201 10.1174 26.8303 13.4766C26.8937 10.5154 24.8808 10.4995 24.0566 11.0886C23.3712 11.6374 22.8705 12.3847 22.6224 13.2292C22.3743 14.0736 22.3909 14.9743 22.6698 15.809C22.8267 16.4744 23.1413 17.092 23.587 17.609C24.0327 18.126 24.5962 18.5271 25.2295 18.7781C26.2899 19.208 27.4707 19.2306 28.5466 18.8415C29.6224 18.4524 30.5179 17.6789 31.0621 16.6687C31.8704 15.2279 32.2666 12.5214 30.119 11.7891Z" fill="white"></path><path d="M16.6311 25.6239C15.8387 25.3691 15.2047 25.6876 14.3964 26.8577C15.1705 25.707 15.6446 24.3796 15.7753 22.997L14.1903 21.8428C14.1903 21.8428 14.8322 23.9602 13.3424 27.3194C13.4058 24.3582 11.3929 24.3423 10.5687 24.9313C9.98906 25.442 9.54685 26.0912 9.28296 26.819C9.01906 27.5467 8.942 28.3295 9.05889 29.0951C9.17578 29.8606 9.48285 30.5843 9.95174 31.1991C10.4206 31.814 11.0362 32.3002 11.7416 32.6129C12.8016 33.0465 13.9837 33.0709 15.0605 32.6815C16.1373 32.292 17.0327 31.5162 17.5742 30.5035C18.3825 29.0706 18.7787 26.3562 16.6311 25.6239Z" fill="white"></path><path d="M30.1189 25.6239C29.3264 25.3691 28.6925 25.6876 27.8921 26.8577C28.6607 25.7049 29.1318 24.3782 29.263 22.997L27.6781 21.8428C27.6781 21.8428 28.32 23.9602 26.8302 27.3194C26.8936 24.3582 24.8807 24.3423 24.0565 24.9313C23.3709 25.4781 22.8698 26.224 22.6216 27.0674C22.3734 27.9107 22.3902 28.8104 22.6697 29.6438C22.8253 30.3098 23.1395 30.9279 23.5854 31.4451C24.0312 31.9623 24.5954 32.363 25.2294 32.6129C26.2893 33.0465 27.4715 33.0709 28.5483 32.6815C29.6251 32.292 30.5204 31.5162 31.062 30.5035C31.8703 29.0706 32.2665 26.3562 30.1189 25.6239Z" fill="currentColor"></path></svg>